<?xml version="1.0" standalone="no"?>
<!DOCTYPE svg PUBLIC "-//W3C//DTD SVG 20010904//EN"
 "http://www.w3.org/TR/2001/REC-SVG-20010904/DTD/svg10.dtd">
<svg version="1.0" xmlns="http://www.w3.org/2000/svg"
 width="110.000000pt" height="88.000000pt" viewBox="0 0 110.000000 88.000000"
 preserveAspectRatio="xMidYMid meet">
<metadata>
Created by potrace 1.16, written by Peter Selinger 2001-2019
</metadata>
<g transform="translate(0.000000,88.000000) scale(0.100000,-0.100000)"
fill="#5E60CE" stroke="none">
<path d="M345 685 c-37 -36 -31 -60 30 -123 95 -98 95 -187 -1 -285 -31 -32
-54 -64 -54 -77 0 -29 44 -70 75 -70 33 0 75 42 75 75 0 29 38 125 49 125 4 0
22 14 39 31 46 45 43 80 -9 127 -48 43 -79 99 -79 142 0 38 -39 80 -75 80 -14
0 -37 -11 -50 -25z"/>
<path d="M596 686 c-41 -37 -31 -87 22 -115 52 -28 115 34 93 92 -19 50 -74
61 -115 23z"/>
<path d="M245 488 c-53 -31 -59 -81 -15 -123 l31 -29 35 19 c56 30 59 101 4
130 -34 18 -30 17 -55 3z"/>
<path d="M738 484 c-51 -27 -50 -97 2 -127 31 -19 41 -17 78 16 32 29 29 70
-9 101 -35 30 -35 30 -71 10z"/>
<path d="M615 268 c-50 -29 -59 -78 -19 -114 41 -38 96 -27 115 23 13 35 -4
77 -37 92 -30 13 -34 13 -59 -1z"/>
</g>
</svg>
